<svg id="svg" version="1.1" xmlns="http://www.w3.org/2000/svg" xmlns:xlink="http://www.w3.org/1999/xlink" width="400" height="400" viewBox="0, 0, 400,400"><g id="svgg"><path id="path0" d="M80.200 52.961 C 75.912 54.015,72.877 56.462,71.081 60.312 L 70.200 62.200 70.200 133.000 L 70.200 203.800 71.081 205.688 C 76.570 217.456,93.522 214.908,95.231 202.058 C 95.900 197.027,95.486 62.831,94.796 61.129 C 92.350 55.091,85.998 51.536,80.200 52.961 M314.735 52.954 C 310.316 53.905,306.320 57.487,305.135 61.560 C 304.697 63.065,304.600 76.171,304.600 133.600 L 304.600 203.800 305.587 205.800 C 310.488 215.728,324.267 215.662,328.919 205.688 L 329.800 203.800 329.800 133.000 L 329.800 62.200 328.672 60.000 C 326.536 55.832,319.672 51.352,317.080 52.434 C 317.036 52.452,315.981 52.686,314.735 52.954 M44.200 68.650 C 41.160 69.428,38.149 71.874,36.739 74.712 L 35.800 76.600 35.800 133.000 L 35.800 189.400 36.757 191.343 C 41.164 200.296,55.992 200.228,60.151 191.236 L 61.000 189.400 61.000 133.000 L 61.000 76.600 59.937 74.600 C 57.326 69.685,50.394 67.064,44.200 68.650 M346.910 68.764 C 344.232 69.450,341.613 71.683,340.063 74.600 L 339.000 76.600 339.000 133.000 L 339.000 189.400 339.948 191.308 C 344.348 200.165,358.852 200.165,363.252 191.308 L 364.200 189.400 364.200 133.000 L 364.200 76.600 363.287 74.766 C 360.749 69.669,353.602 67.050,346.910 68.764 M15.755 111.986 C 13.149 113.058,13.200 112.638,13.200 132.874 C 13.200 155.945,12.593 154.400,21.652 154.400 C 27.490 154.400,26.847 157.225,26.711 132.200 L 26.600 111.800 21.600 111.719 C 18.850 111.675,16.220 111.795,15.755 111.986 M373.500 111.831 C 373.145 112.189,373.089 152.846,373.443 153.767 C 373.740 154.541,382.253 154.688,384.352 153.957 C 386.804 153.102,386.800 153.134,386.800 132.826 L 386.800 114.413 385.633 113.106 L 384.466 111.800 379.133 111.664 C 376.200 111.590,373.665 111.665,373.500 111.831 " stroke="none" fill="#047d8d" fill-rule="evenodd"></path><path id="path1" d="M183.200 67.151 C 179.382 68.405,176.149 71.230,174.448 74.800 L 173.400 77.000 173.400 95.039 C 173.400 109.574,173.508 113.303,173.954 114.239 C 174.258 114.878,174.708 115.847,174.954 116.394 C 175.199 116.941,176.214 118.219,177.210 119.233 C 178.869 120.924,179.683 121.424,182.919 122.744 C 184.256 123.289,189.722 123.352,190.705 122.834 C 191.087 122.632,192.045 122.188,192.833 121.847 C 195.230 120.809,197.507 118.486,198.898 115.663 L 200.200 113.018 200.200 95.001 L 200.200 76.984 198.883 74.309 C 196.123 68.702,188.739 65.332,183.200 67.151 M148.800 74.777 C 148.470 74.959,147.660 75.353,147.000 75.654 C 145.002 76.563,142.794 78.864,141.769 81.104 L 140.800 83.224 140.800 98.618 C 140.800 113.492,141.059 117.200,142.097 117.200 C 142.264 117.200,142.400 117.433,142.400 117.717 C 142.400 120.762,152.122 124.568,155.505 122.847 C 155.887 122.652,156.735 122.247,157.388 121.947 C 159.139 121.141,161.300 118.836,162.417 116.583 L 163.400 114.600 163.400 98.800 L 163.400 83.000 162.456 81.100 C 161.296 78.765,157.510 75.200,156.191 75.200 C 155.672 75.200,155.136 75.020,155.000 74.800 C 154.705 74.323,149.659 74.305,148.800 74.777 M219.000 75.600 C 218.864 75.820,218.401 76.000,217.971 76.000 C 216.274 76.000,211.200 80.479,211.200 81.977 C 211.200 82.404,211.020 82.864,210.800 83.000 C 210.544 83.158,210.400 88.996,210.400 99.200 C 210.400 109.404,210.544 115.242,210.800 115.400 C 211.020 115.536,211.200 115.977,211.200 116.380 C 211.200 117.391,214.592 121.076,216.135 121.742 C 219.118 123.029,219.722 123.200,221.290 123.200 C 225.782 123.200,230.820 119.472,231.982 115.290 C 232.737 112.572,232.526 84.913,231.733 82.585 C 231.033 80.530,228.241 77.374,226.400 76.555 C 223.428 75.234,219.537 74.732,219.000 75.600 M247.306 85.394 C 245.632 86.122,244.277 87.425,243.235 89.312 C 242.212 91.164,241.918 116.347,242.899 118.105 C 243.774 119.675,246.542 122.400,247.260 122.400 C 247.641 122.400,248.064 122.580,248.200 122.800 C 249.590 125.050,257.134 121.616,258.633 118.051 C 259.650 115.632,259.446 91.262,258.392 89.386 C 256.119 85.340,251.367 83.628,247.306 85.394 M104.596 117.700 C 104.476 118.195,104.427 125.440,104.489 133.800 L 104.600 149.000 113.565 149.000 L 122.530 149.000 123.057 146.400 C 124.567 138.955,133.206 129.600,138.572 129.600 C 139.928 129.600,139.529 128.594,137.220 126.189 C 135.013 123.891,132.000 118.718,132.000 117.226 C 132.000 116.933,127.760 116.800,118.408 116.800 L 104.815 116.800 104.596 117.700 M268.375 118.500 C 264.677 132.239,248.870 137.137,238.454 127.772 L 236.420 125.944 235.413 126.950 C 231.212 131.151,224.092 133.429,218.300 132.425 C 214.214 131.717,210.159 129.678,207.159 126.823 L 204.668 124.453 202.364 126.537 C 193.250 134.785,179.773 134.581,170.815 126.060 L 169.096 124.425 166.592 126.712 C 164.270 128.835,161.041 130.803,158.900 131.402 C 157.665 131.748,157.772 132.493,159.177 133.323 C 162.680 135.392,166.262 141.453,167.498 147.400 L 167.830 149.000 231.615 149.000 L 295.400 149.000 295.511 133.800 C 295.573 125.440,295.524 118.195,295.404 117.700 L 295.185 116.800 282.008 116.800 L 268.832 116.800 268.375 118.500 M140.872 138.497 C 137.550 139.590,134.832 142.024,133.176 145.387 L 131.928 147.923 131.904 161.061 C 131.876 176.583,132.247 179.057,135.701 186.400 C 138.583 192.525,141.700 196.321,149.031 202.634 C 154.965 207.744,154.776 207.379,154.899 214.000 L 155.000 219.400 196.070 219.502 L 237.141 219.604 237.270 213.838 L 237.400 208.073 241.608 203.736 C 250.500 194.574,255.785 185.039,257.980 174.200 C 258.247 172.880,258.631 171.045,258.833 170.123 C 259.035 169.200,259.200 166.275,259.200 163.623 L 259.200 158.800 213.600 158.800 L 168.000 158.800 168.000 164.541 C 168.000 172.101,166.668 174.387,162.610 173.794 C 158.758 173.231,158.400 171.954,158.400 158.784 C 158.400 148.832,158.341 147.928,157.572 146.134 C 154.715 139.470,147.684 136.254,140.872 138.497 " stroke="none" fill="#f9c2be" fill-rule="evenodd"></path><path id="path2" d="M185.700 66.687 C 186.305 66.778,187.295 66.778,187.900 66.687 C 188.505 66.595,188.010 66.520,186.800 66.520 C 185.590 66.520,185.095 66.595,185.700 66.687 M159.800 77.600 C 160.659 78.480,161.452 79.200,161.562 79.200 C 161.672 79.200,161.059 78.480,160.200 77.600 C 159.341 76.720,158.548 76.000,158.438 76.000 C 158.328 76.000,158.941 76.720,159.800 77.600 M212.975 78.900 L 211.800 80.200 213.100 79.025 C 213.815 78.379,214.400 77.794,214.400 77.725 C 214.400 77.416,214.070 77.688,212.975 78.900 M173.293 79.200 C 173.293 79.970,173.375 80.285,173.476 79.900 C 173.576 79.515,173.576 78.885,173.476 78.500 C 173.375 78.115,173.293 78.430,173.293 79.200 M200.582 95.000 C 200.582 103.800,200.635 107.343,200.700 102.873 C 200.764 98.404,200.764 91.204,200.699 86.873 C 200.635 82.543,200.582 86.200,200.582 95.000 M173.320 85.200 C 173.320 86.410,173.395 86.905,173.487 86.300 C 173.578 85.695,173.578 84.705,173.487 84.100 C 173.395 83.495,173.320 83.990,173.320 85.200 M249.700 84.687 C 250.305 84.778,251.295 84.778,251.900 84.687 C 252.505 84.595,252.010 84.520,250.800 84.520 C 249.590 84.520,249.095 84.595,249.700 84.687 M232.581 99.200 C 232.581 107.230,232.634 110.515,232.699 106.500 C 232.765 102.485,232.765 95.915,232.699 91.900 C 232.634 87.885,232.581 91.170,232.581 99.200 M140.578 98.000 C 140.578 104.930,140.633 107.765,140.699 104.300 C 140.766 100.835,140.766 95.165,140.699 91.700 C 140.633 88.235,140.578 91.070,140.578 98.000 M163.777 97.800 C 163.777 104.180,163.832 106.734,163.899 103.476 C 163.967 100.217,163.966 94.997,163.899 91.876 C 163.831 88.754,163.776 91.420,163.777 97.800 M210.177 98.200 C 210.177 104.580,210.232 107.134,210.299 103.876 C 210.367 100.617,210.366 95.397,210.299 92.276 C 210.231 89.154,210.176 91.820,210.177 98.200 M259.370 101.400 C 259.371 106.240,259.429 108.165,259.499 105.678 C 259.569 103.191,259.569 99.231,259.498 96.878 C 259.428 94.525,259.370 96.560,259.370 101.400 M242.169 102.800 C 242.169 107.310,242.227 109.155,242.298 106.900 C 242.370 104.645,242.370 100.955,242.298 98.700 C 242.227 96.445,242.169 98.290,242.169 102.800 M173.293 109.600 C 173.293 110.370,173.375 110.685,173.476 110.300 C 173.576 109.915,173.576 109.285,173.476 108.900 C 173.375 108.515,173.293 108.830,173.293 109.600 M163.293 112.800 C 163.293 113.570,163.375 113.885,163.476 113.500 C 163.576 113.115,163.576 112.485,163.476 112.100 C 163.375 111.715,163.293 112.030,163.293 112.800 M213.200 119.800 C 213.946 120.570,214.647 121.200,214.757 121.200 C 214.867 121.200,214.346 120.570,213.600 119.800 C 212.854 119.030,212.153 118.400,212.043 118.400 C 211.933 118.400,212.454 119.030,213.200 119.800 M244.400 120.600 C 245.146 121.370,245.847 122.000,245.957 122.000 C 246.067 122.000,245.546 121.370,244.800 120.600 C 244.054 119.830,243.353 119.200,243.243 119.200 C 243.133 119.200,243.654 119.830,244.400 120.600 M256.000 121.260 C 255.230 121.935,254.962 122.305,255.404 122.081 C 256.135 121.711,257.947 119.978,257.562 120.016 C 257.473 120.025,256.770 120.585,256.000 121.260 M141.000 229.666 C 136.700 232.038,136.800 231.348,136.800 258.600 C 136.800 286.257,136.674 285.451,141.293 287.381 C 143.537 288.318,247.655 288.322,249.898 287.385 C 251.882 286.556,252.774 285.703,253.648 283.800 C 254.520 281.900,254.820 235.964,253.975 233.726 C 253.453 232.347,251.770 230.522,250.320 229.764 C 248.909 229.027,142.332 228.931,141.000 229.666 M148.584 298.098 C 148.479 298.374,148.439 309.490,148.496 322.800 L 148.600 347.000 195.600 347.000 L 242.600 347.000 242.600 322.400 L 242.600 297.800 195.688 297.698 C 158.370 297.617,148.737 297.699,148.584 298.098 " stroke="none" fill="#f95393" fill-rule="evenodd"></path><path id="path3" d="M76.200 43.690 C 75.540 43.912,74.687 44.253,74.305 44.447 C 73.923 44.641,73.338 44.800,73.005 44.800 C 72.672 44.800,72.400 44.980,72.400 45.200 C 72.400 45.420,72.164 45.600,71.875 45.600 C 71.587 45.600,70.964 45.960,70.492 46.400 C 70.020 46.840,69.464 47.200,69.257 47.200 C 68.764 47.200,64.800 51.086,64.800 51.569 C 64.800 51.775,64.569 52.181,64.288 52.471 C 63.372 53.416,62.000 56.026,62.000 56.823 C 62.000 57.250,61.820 57.600,61.600 57.600 C 61.380 57.600,61.194 58.095,61.187 58.700 C 61.173 59.969,60.020 61.698,59.721 60.900 C 59.618 60.625,59.188 60.400,58.767 60.400 C 58.345 60.400,58.000 60.240,58.000 60.045 C 58.000 59.112,42.346 58.294,41.459 59.181 C 41.228 59.412,40.536 59.600,39.920 59.600 C 39.304 59.600,38.800 59.780,38.800 60.000 C 38.800 60.220,38.440 60.400,38.000 60.400 C 37.560 60.400,37.200 60.580,37.200 60.800 C 37.200 61.020,36.840 61.200,36.400 61.200 C 35.960 61.200,35.600 61.380,35.600 61.600 C 35.600 61.820,35.346 62.000,35.035 62.000 C 34.288 62.000,29.755 66.481,29.413 67.558 C 29.266 68.021,28.978 68.400,28.773 68.400 C 28.568 68.400,28.400 68.760,28.400 69.200 C 28.400 69.640,28.220 70.000,28.000 70.000 C 27.780 70.000,27.600 70.272,27.600 70.605 C 27.600 70.938,27.442 71.523,27.249 71.905 C 26.143 74.096,26.000 76.016,26.000 88.728 L 26.000 102.000 20.200 102.000 C 16.600 102.000,14.400 102.152,14.400 102.400 C 14.400 102.620,13.680 102.800,12.800 102.800 C 11.920 102.800,11.200 102.980,11.200 103.200 C 11.200 103.420,10.964 103.600,10.675 103.600 C 10.387 103.600,9.764 103.960,9.292 104.400 C 8.820 104.840,8.323 105.200,8.188 105.200 C 7.760 105.200,6.800 106.324,6.800 106.825 C 6.800 107.089,6.485 107.599,6.100 107.957 C 5.131 108.859,4.400 110.240,4.400 111.171 C 4.400 111.601,4.220 112.064,4.000 112.200 C 3.450 112.540,3.450 153.460,4.000 153.800 C 4.220 153.936,4.400 154.577,4.400 155.224 C 4.400 155.871,4.580 156.400,4.800 156.400 C 5.020 156.400,5.200 156.666,5.200 156.991 C 5.200 157.693,9.276 162.000,9.940 162.000 C 10.193 162.000,10.400 162.180,10.400 162.400 C 10.400 162.620,10.760 162.800,11.200 162.800 C 11.640 162.800,12.000 162.980,12.000 163.200 C 12.000 163.451,14.600 163.600,19.000 163.600 L 26.000 163.600 26.000 177.600 C 26.000 186.667,26.141 191.600,26.400 191.600 C 26.620 191.600,26.800 191.963,26.800 192.406 C 26.800 193.533,27.731 196.400,28.097 196.400 C 28.264 196.400,28.400 196.625,28.400 196.900 C 28.401 197.175,28.866 197.940,29.435 198.600 C 30.004 199.260,30.754 200.281,31.102 200.869 C 31.451 201.456,32.200 202.175,32.768 202.466 C 33.335 202.757,34.070 203.274,34.400 203.615 C 35.337 204.584,37.963 206.000,38.823 206.000 C 39.250 206.000,39.600 206.180,39.600 206.400 C 39.600 206.620,40.129 206.800,40.776 206.800 C 41.423 206.800,42.064 206.980,42.200 207.200 C 42.548 207.763,53.399 207.711,55.172 207.138 C 55.957 206.884,57.400 206.327,58.377 205.900 C 60.427 205.004,61.200 205.490,61.200 207.676 C 61.200 208.294,61.380 208.800,61.600 208.800 C 61.820 208.800,62.000 209.160,62.000 209.600 C 62.000 210.040,62.180 210.400,62.400 210.400 C 62.620 210.400,62.800 210.760,62.800 211.200 C 62.800 211.640,62.980 212.000,63.200 212.000 C 63.420 212.000,63.600 212.267,63.600 212.593 C 63.600 213.825,69.781 220.000,71.013 220.000 C 71.336 220.000,71.600 220.180,71.600 220.400 C 71.600 220.620,71.960 220.800,72.400 220.800 C 72.840 220.800,73.200 220.980,73.200 221.200 C 73.200 221.420,73.560 221.600,74.000 221.600 C 74.440 221.600,74.800 221.780,74.800 222.000 C 74.800 222.220,75.419 222.400,76.176 222.400 C 76.933 222.400,77.664 222.580,77.800 222.800 C 78.127 223.329,87.473 223.329,87.800 222.800 C 87.936 222.580,88.566 222.400,89.200 222.400 C 89.834 222.400,90.464 222.220,90.600 222.000 C 90.736 221.780,91.197 221.600,91.624 221.600 C 92.051 221.600,92.400 221.420,92.400 221.200 C 92.400 220.980,92.760 220.800,93.200 220.800 C 93.640 220.800,94.000 220.620,94.000 220.400 C 94.000 220.180,94.262 220.000,94.583 220.000 C 95.343 220.000,102.000 213.343,102.000 212.583 C 102.000 212.262,102.180 212.000,102.400 212.000 C 102.620 212.000,102.800 211.640,102.800 211.200 C 102.800 210.760,102.936 210.400,103.103 210.400 C 103.469 210.400,104.400 207.533,104.400 206.406 C 104.400 205.963,104.580 205.600,104.800 205.600 C 105.062 205.600,105.200 197.533,105.200 182.200 L 105.200 158.800 113.400 158.800 L 121.600 158.800 121.600 164.576 C 121.600 167.996,121.763 170.454,122.000 170.600 C 122.221 170.737,122.400 172.537,122.400 174.624 C 122.400 176.875,122.562 178.400,122.800 178.400 C 123.020 178.400,123.200 179.300,123.200 180.400 C 123.200 181.500,123.380 182.400,123.600 182.400 C 123.820 182.400,124.000 182.940,124.000 183.600 C 124.000 184.260,124.156 184.800,124.347 184.800 C 124.538 184.800,124.786 185.483,124.898 186.318 C 125.010 187.152,125.484 188.626,125.951 189.593 C 126.418 190.559,126.800 191.586,126.800 191.875 C 126.800 192.164,126.980 192.400,127.200 192.400 C 127.420 192.400,127.600 192.760,127.600 193.200 C 127.600 193.640,127.780 194.000,128.000 194.000 C 128.220 194.000,128.400 194.236,128.400 194.525 C 128.400 194.813,128.760 195.436,129.200 195.908 C 129.640 196.380,130.000 196.956,130.000 197.187 C 130.000 197.418,130.540 198.172,131.200 198.863 C 131.860 199.554,132.400 200.279,132.400 200.475 C 132.400 200.954,142.114 210.400,142.607 210.400 C 143.943 210.400,144.800 212.502,144.800 215.782 L 144.800 219.200 142.600 219.200 C 141.390 219.200,140.400 219.380,140.400 219.600 C 140.400 219.820,139.871 220.000,139.224 220.000 C 138.577 220.000,137.936 220.180,137.800 220.400 C 137.664 220.620,137.113 220.800,136.576 220.800 C 136.039 220.800,135.600 220.950,135.600 221.132 C 135.600 221.315,135.105 221.720,134.500 222.032 C 131.717 223.468,128.501 227.728,127.256 231.628 C 126.613 233.642,126.613 283.558,127.256 285.572 C 128.487 289.425,133.269 295.600,135.022 295.600 C 135.340 295.600,135.600 295.780,135.600 296.000 C 135.600 296.220,135.960 296.400,136.400 296.400 C 136.840 296.400,137.200 296.580,137.200 296.800 C 137.200 297.020,137.560 297.200,138.000 297.200 C 138.792 297.200,138.800 297.467,138.800 325.600 C 138.800 344.267,138.937 354.000,139.200 354.000 C 139.420 354.000,139.600 354.188,139.600 354.418 C 139.600 354.648,140.042 355.278,140.582 355.818 L 141.564 356.800 195.682 356.800 L 249.800 356.799 250.900 355.853 C 251.505 355.333,252.000 354.533,252.000 354.077 C 252.000 353.621,252.180 353.136,252.400 353.000 C 252.660 352.839,252.800 343.120,252.800 325.148 C 252.800 295.520,252.740 296.400,254.771 296.400 C 255.227 296.400,255.600 296.220,255.600 296.000 C 255.600 295.780,255.870 295.600,256.200 295.600 C 256.530 295.600,256.800 295.420,256.800 295.200 C 256.800 294.980,256.985 294.800,257.211 294.800 C 257.436 294.800,258.426 293.995,259.411 293.011 C 260.395 292.026,261.200 291.036,261.200 290.811 C 261.200 290.585,261.380 290.400,261.600 290.400 C 261.820 290.400,262.000 290.040,262.000 289.600 C 262.000 289.160,262.180 288.800,262.400 288.800 C 262.620 288.800,262.800 288.440,262.800 288.000 C 262.800 287.560,262.980 287.200,263.200 287.200 C 263.420 287.200,263.600 286.581,263.600 285.824 C 263.600 285.067,263.780 284.336,264.000 284.200 C 264.260 284.039,264.400 275.063,264.400 258.576 C 264.400 241.925,264.262 233.200,264.000 233.200 C 263.780 233.200,263.600 232.480,263.600 231.600 C 263.600 230.720,263.420 230.000,263.200 230.000 C 262.980 230.000,262.800 229.640,262.800 229.200 C 262.800 228.760,262.620 228.400,262.400 228.400 C 262.180 228.400,262.000 228.040,262.000 227.600 C 262.000 227.160,261.820 226.800,261.600 226.800 C 261.380 226.800,261.200 226.615,261.200 226.389 C 261.200 226.164,260.395 225.174,259.411 224.189 C 258.426 223.205,257.436 222.400,257.211 222.400 C 256.985 222.400,256.800 222.220,256.800 222.000 C 256.800 221.780,256.440 221.600,256.000 221.600 C 255.560 221.600,255.200 221.420,255.200 221.200 C 255.200 220.980,254.840 220.800,254.400 220.800 C 253.960 220.800,253.600 220.620,253.600 220.400 C 253.600 220.180,253.071 220.000,252.424 220.000 C 251.777 220.000,251.136 219.820,251.000 219.600 C 250.864 219.380,249.953 219.200,248.976 219.200 L 247.200 219.200 247.200 215.779 L 247.200 212.358 250.500 209.064 C 254.776 204.795,256.660 202.408,258.368 199.100 C 258.680 198.495,259.085 198.000,259.268 198.000 C 259.450 198.000,259.600 197.640,259.600 197.200 C 259.600 196.760,259.780 196.400,260.000 196.400 C 260.220 196.400,260.400 196.040,260.400 195.600 C 260.400 195.160,260.535 194.799,260.700 194.797 C 261.059 194.793,262.000 192.856,262.000 192.120 C 262.000 191.834,262.180 191.600,262.400 191.600 C 262.620 191.600,262.800 191.330,262.800 191.000 C 262.800 190.670,262.980 190.400,263.200 190.400 C 263.420 190.400,263.600 190.040,263.600 189.600 C 263.600 189.160,263.780 188.800,264.000 188.800 C 264.220 188.800,264.400 188.438,264.400 187.995 C 264.400 187.552,264.580 186.832,264.800 186.395 C 265.020 185.958,265.380 185.242,265.600 184.805 C 265.820 184.368,266.000 183.659,266.000 183.229 C 266.000 182.799,266.180 182.336,266.400 182.200 C 266.620 182.064,266.800 181.333,266.800 180.576 C 266.800 179.819,266.980 179.200,267.200 179.200 C 267.420 179.200,267.600 178.480,267.600 177.600 C 267.600 176.720,267.780 176.000,268.000 176.000 C 268.220 176.000,268.400 175.021,268.400 173.824 C 268.400 172.627,268.580 171.536,268.800 171.400 C 269.039 171.252,269.200 168.663,269.200 164.976 L 269.200 158.800 282.000 158.800 L 294.800 158.800 294.800 182.200 C 294.800 197.533,294.938 205.600,295.200 205.600 C 295.420 205.600,295.600 205.963,295.600 206.406 C 295.600 207.533,296.531 210.400,296.897 210.400 C 297.064 210.400,297.200 210.760,297.200 211.200 C 297.200 211.640,297.380 212.000,297.600 212.000 C 297.820 212.000,298.000 212.254,298.000 212.563 C 298.000 213.341,304.604 220.000,305.375 220.000 C 305.719 220.000,306.000 220.180,306.000 220.400 C 306.000 220.620,306.360 220.800,306.800 220.800 C 307.240 220.800,307.600 220.980,307.600 221.200 C 307.600 221.420,307.949 221.600,308.376 221.600 C 308.803 221.600,309.264 221.780,309.400 222.000 C 309.536 222.220,310.166 222.400,310.800 222.400 C 311.434 222.400,312.064 222.580,312.200 222.800 C 312.527 223.329,321.873 223.329,322.200 222.800 C 322.336 222.580,322.966 222.400,323.600 222.400 C 324.234 222.400,324.864 222.220,325.000 222.000 C 325.136 221.780,325.597 221.600,326.024 221.600 C 326.451 221.600,326.800 221.420,326.800 221.200 C 326.800 220.980,327.160 220.800,327.600 220.800 C 328.040 220.800,328.400 220.620,328.400 220.400 C 328.400 220.180,328.683 220.000,329.029 220.000 C 329.848 220.000,336.400 213.448,336.400 212.629 C 336.400 212.283,336.580 212.000,336.800 212.000 C 337.020 212.000,337.200 211.640,337.200 211.200 C 337.200 210.760,337.380 210.400,337.600 210.400 C 337.820 210.400,338.000 210.051,338.000 209.624 C 338.000 209.197,338.180 208.736,338.400 208.600 C 338.620 208.464,338.800 207.845,338.800 207.225 C 338.800 205.409,339.634 205.032,341.664 205.929 C 345.140 207.464,346.445 207.659,352.000 207.470 C 357.787 207.274,360.400 206.927,360.400 206.356 C 360.400 206.160,360.750 206.000,361.177 206.000 C 361.968 206.000,364.581 204.630,365.515 203.726 C 365.798 203.452,366.538 202.927,367.160 202.560 C 367.783 202.192,368.570 201.421,368.911 200.846 C 369.252 200.271,369.996 199.260,370.565 198.600 C 371.134 197.940,371.599 197.175,371.600 196.900 C 371.600 196.625,371.741 196.400,371.913 196.400 C 372.085 196.400,372.457 195.545,372.739 194.500 C 373.022 193.455,373.421 192.287,373.627 191.905 C 373.837 191.514,374.000 185.193,374.000 177.405 L 374.000 163.600 381.000 163.600 C 385.400 163.600,388.000 163.451,388.000 163.200 C 388.000 162.980,388.360 162.800,388.800 162.800 C 389.240 162.800,389.600 162.620,389.600 162.400 C 389.600 162.180,389.807 162.000,390.060 162.000 C 390.724 162.000,394.800 157.693,394.800 156.991 C 394.800 156.666,394.980 156.400,395.200 156.400 C 395.420 156.400,395.600 155.871,395.600 155.224 C 395.600 154.577,395.780 153.936,396.000 153.800 C 396.550 153.460,396.550 112.540,396.000 112.200 C 395.780 112.064,395.600 111.601,395.600 111.171 C 395.600 110.240,394.869 108.859,393.900 107.957 C 393.515 107.599,393.200 107.089,393.200 106.825 C 393.200 106.324,392.240 105.200,391.812 105.200 C 391.677 105.200,391.180 104.840,390.708 104.400 C 390.236 103.960,389.613 103.600,389.325 103.600 C 389.036 103.600,388.800 103.420,388.800 103.200 C 388.800 102.980,388.080 102.800,387.200 102.800 C 386.320 102.800,385.600 102.620,385.600 102.400 C 385.600 102.152,383.400 102.000,379.800 102.000 L 374.000 102.000 374.000 88.728 C 374.000 76.016,373.857 74.096,372.751 71.905 C 372.558 71.523,372.400 70.938,372.400 70.605 C 372.400 70.272,372.220 70.000,372.000 70.000 C 371.780 70.000,371.600 69.640,371.600 69.200 C 371.600 68.760,371.432 68.400,371.227 68.400 C 371.022 68.400,370.734 68.021,370.587 67.558 C 370.245 66.481,365.712 62.000,364.965 62.000 C 364.654 62.000,364.399 61.865,364.397 61.700 C 364.393 61.341,362.456 60.400,361.720 60.400 C 361.434 60.400,361.200 60.220,361.200 60.000 C 361.200 59.780,360.696 59.600,360.080 59.600 C 359.464 59.600,358.772 59.412,358.541 59.181 C 357.654 58.294,342.000 59.112,342.000 60.045 C 342.000 60.240,341.655 60.400,341.233 60.400 C 340.812 60.400,340.382 60.625,340.279 60.900 C 339.980 61.698,338.827 59.969,338.813 58.700 C 338.806 58.095,338.620 57.600,338.400 57.600 C 338.180 57.600,338.000 57.250,338.000 56.823 C 338.000 56.016,336.462 53.100,335.913 52.867 C 335.741 52.793,335.600 52.503,335.600 52.220 C 335.600 51.520,331.403 47.200,330.723 47.200 C 330.422 47.200,329.917 46.840,329.600 46.400 C 329.283 45.960,328.703 45.600,328.312 45.600 C 327.920 45.600,327.600 45.420,327.600 45.200 C 327.600 44.980,327.251 44.800,326.824 44.800 C 326.397 44.800,325.936 44.620,325.800 44.400 C 325.664 44.180,325.124 44.000,324.600 44.000 C 324.076 44.000,323.536 43.820,323.400 43.600 C 322.459 42.078,308.407 43.652,306.471 45.496 C 306.181 45.773,305.804 46.000,305.634 46.000 C 305.464 46.000,304.801 46.450,304.162 47.000 C 303.523 47.549,302.844 47.999,302.654 48.000 C 302.174 48.000,299.600 50.858,299.600 51.390 C 299.600 51.628,299.240 52.083,298.800 52.400 C 298.360 52.717,298.000 53.297,298.000 53.688 C 298.000 54.080,297.820 54.400,297.600 54.400 C 297.380 54.400,297.200 54.760,297.200 55.200 C 297.200 55.640,297.020 56.000,296.800 56.000 C 296.580 56.000,296.400 56.360,296.400 56.800 C 296.400 57.240,296.220 57.600,296.000 57.600 C 295.780 57.600,295.600 58.219,295.600 58.976 C 295.600 59.733,295.420 60.464,295.200 60.600 C 294.941 60.760,294.800 68.937,294.800 83.824 L 294.800 106.800 282.000 106.800 L 269.200 106.800 269.200 97.424 C 269.200 91.604,269.048 87.953,268.800 87.800 C 268.580 87.664,268.400 87.113,268.400 86.576 C 268.400 86.039,268.220 85.600,268.000 85.600 C 267.780 85.600,267.600 85.240,267.600 84.800 C 267.600 84.360,267.420 84.000,267.200 84.000 C 266.980 84.000,266.800 83.722,266.800 83.382 C 266.800 83.042,266.395 82.344,265.900 81.832 C 265.405 81.320,264.718 80.563,264.373 80.150 C 260.194 75.146,248.888 72.993,242.932 76.068 L 240.863 77.135 239.832 75.576 C 239.264 74.719,238.800 73.919,238.800 73.800 C 238.800 73.338,234.389 69.200,233.897 69.200 C 233.611 69.200,233.117 68.840,232.800 68.400 C 232.483 67.960,231.903 67.600,231.512 67.600 C 231.120 67.600,230.800 67.420,230.800 67.200 C 230.800 66.980,230.260 66.800,229.600 66.800 C 228.940 66.800,228.400 66.620,228.400 66.400 C 228.400 66.180,227.781 66.000,227.024 66.000 C 226.267 66.000,225.536 65.820,225.400 65.600 C 225.076 65.076,217.324 65.076,217.000 65.600 C 216.864 65.820,216.234 66.000,215.600 66.000 C 214.966 66.000,214.336 66.180,214.200 66.400 C 214.064 66.620,213.513 66.800,212.976 66.800 C 212.439 66.800,212.000 66.980,212.000 67.200 C 212.000 67.420,211.640 67.600,211.200 67.600 C 210.760 67.600,210.400 67.780,210.400 68.000 C 210.400 68.220,210.196 68.400,209.947 68.400 C 209.698 68.400,209.173 68.770,208.781 69.222 L 208.068 70.044 207.779 69.122 C 206.527 65.123,198.789 58.400,195.440 58.400 C 195.088 58.400,194.800 58.220,194.800 58.000 C 194.800 57.780,194.080 57.600,193.200 57.600 C 192.320 57.600,191.600 57.420,191.600 57.200 C 191.600 56.666,182.530 56.666,182.200 57.200 C 182.064 57.420,181.344 57.600,180.600 57.600 C 179.856 57.600,179.136 57.780,179.000 58.000 C 178.864 58.220,178.402 58.400,177.973 58.400 C 177.064 58.400,173.200 60.406,173.200 60.879 C 173.200 61.055,172.959 61.200,172.664 61.200 C 171.951 61.200,168.747 64.312,168.032 65.700 C 167.720 66.305,167.315 66.800,167.132 66.800 C 166.950 66.800,166.794 67.025,166.787 67.300 C 166.754 68.589,165.776 69.222,164.964 68.479 C 163.745 67.363,161.223 66.000,160.377 66.000 C 159.950 66.000,159.600 65.820,159.600 65.600 C 159.600 65.380,159.060 65.200,158.400 65.200 C 157.740 65.200,157.200 65.020,157.200 64.800 C 157.200 64.554,155.200 64.400,152.000 64.400 C 148.800 64.400,146.800 64.554,146.800 64.800 C 146.800 65.020,146.367 65.200,145.838 65.200 C 144.870 65.200,141.515 66.741,141.267 67.300 C 141.193 67.465,140.875 67.600,140.560 67.600 C 139.904 67.600,134.000 73.369,134.000 74.010 C 134.000 74.243,133.640 74.820,133.200 75.292 C 132.760 75.764,132.400 76.477,132.400 76.875 C 132.400 77.274,132.220 77.600,132.000 77.600 C 131.780 77.600,131.600 78.140,131.600 78.800 C 131.600 79.460,131.420 80.000,131.200 80.000 C 130.941 80.000,130.800 84.733,130.800 93.400 L 130.800 106.800 118.000 106.800 L 105.200 106.800 105.200 83.824 C 105.200 68.937,105.059 60.760,104.800 60.600 C 104.580 60.464,104.400 59.733,104.400 58.976 C 104.400 58.219,104.220 57.600,104.000 57.600 C 103.780 57.600,103.600 57.240,103.600 56.800 C 103.600 56.360,103.420 56.000,103.200 56.000 C 102.980 56.000,102.800 55.640,102.800 55.200 C 102.800 54.760,102.620 54.400,102.400 54.400 C 102.180 54.400,102.000 54.080,102.000 53.688 C 102.000 53.297,101.640 52.717,101.200 52.400 C 100.760 52.083,100.400 51.579,100.400 51.280 C 100.400 50.720,97.373 47.600,96.830 47.600 C 96.662 47.600,96.001 47.150,95.362 46.600 C 94.723 46.051,93.975 45.601,93.700 45.600 C 93.425 45.600,93.200 45.420,93.200 45.200 C 93.200 44.980,92.928 44.800,92.595 44.800 C 92.262 44.800,91.677 44.642,91.295 44.449 C 88.811 43.195,79.116 42.707,76.200 43.690 M86.406 53.228 C 89.770 54.071,93.273 57.369,94.796 61.129 C 95.486 62.831,95.900 197.027,95.231 202.058 C 93.522 214.908,76.570 217.456,71.081 205.688 L 70.200 203.800 70.200 133.000 L 70.200 62.200 71.081 60.312 C 73.885 54.300,79.790 51.570,86.406 53.228 M319.280 52.850 C 323.727 53.793,326.619 55.995,328.672 60.000 L 329.800 62.200 329.800 133.000 L 329.800 203.800 328.919 205.688 C 324.267 215.662,310.488 215.728,305.587 205.800 L 304.600 203.800 304.600 133.600 C 304.600 76.171,304.697 63.065,305.135 61.560 C 306.320 57.487,310.316 53.905,314.735 52.954 C 315.981 52.686,317.036 52.452,317.080 52.434 C 317.124 52.415,318.114 52.602,319.280 52.850 M192.547 67.177 C 195.327 68.369,198.316 71.361,199.762 74.400 L 201.000 77.000 201.000 95.009 L 201.000 113.017 199.688 115.683 C 196.550 122.056,187.768 125.895,182.261 123.300 C 181.677 123.025,180.710 122.575,180.110 122.300 C 177.000 120.873,173.628 116.284,172.983 112.600 C 172.462 109.620,172.319 79.554,172.817 77.600 C 175.135 68.504,184.321 63.651,192.547 67.177 M55.000 69.574 C 57.303 70.871,58.726 72.320,59.937 74.600 L 61.000 76.600 61.000 133.000 L 61.000 189.400 60.151 191.236 C 55.992 200.228,41.164 200.296,36.757 191.343 L 35.800 189.400 35.800 133.000 L 35.800 76.600 36.739 74.712 C 38.149 71.874,41.160 69.428,44.200 68.650 C 46.426 68.080,53.408 68.677,55.000 69.574 M358.200 69.573 C 360.477 70.855,362.231 72.645,363.287 74.766 L 364.200 76.600 364.200 133.000 L 364.200 189.400 363.252 191.308 C 358.852 200.165,344.348 200.165,339.948 191.308 L 339.000 189.400 339.000 133.000 L 339.000 76.600 340.063 74.600 C 341.613 71.683,344.232 69.450,346.910 68.764 C 349.534 68.092,356.448 68.588,358.200 69.573 M157.104 74.888 C 160.835 76.731,163.095 79.594,163.982 83.600 C 164.614 86.454,164.507 112.164,163.853 114.618 C 163.011 117.780,159.979 122.000,158.549 122.000 C 158.247 122.000,158.000 122.151,158.000 122.336 C 158.000 123.000,154.544 123.800,151.741 123.784 C 147.147 123.758,143.411 121.361,141.200 117.020 L 140.200 115.057 140.200 98.802 L 140.200 82.547 141.200 80.595 C 144.256 74.629,151.394 72.068,157.104 74.888 M226.088 75.766 C 228.648 76.937,230.718 78.934,232.025 81.492 L 233.000 83.400 233.000 99.200 C 233.000 114.446,232.970 115.063,232.155 116.800 C 231.188 118.860,228.677 121.544,226.965 122.347 C 226.324 122.647,225.487 123.052,225.105 123.247 C 222.410 124.618,216.447 123.286,213.329 120.618 C 209.916 117.696,209.729 116.749,209.343 100.400 C 208.940 83.378,210.205 78.610,215.803 76.054 C 216.462 75.753,217.270 75.359,217.600 75.177 C 218.966 74.425,223.907 74.768,226.088 75.766 M254.142 84.550 C 259.447 86.767,259.800 87.993,259.800 104.200 L 259.800 117.800 258.487 119.691 C 254.475 125.469,245.444 125.004,242.503 118.867 C 241.442 116.652,241.438 91.356,242.498 89.143 C 244.470 85.031,250.037 82.835,254.142 84.550 M26.711 132.200 C 26.847 157.225,27.490 154.400,21.652 154.400 C 12.593 154.400,13.200 155.945,13.200 132.874 C 13.200 109.996,12.574 111.574,21.600 111.719 L 26.600 111.800 26.711 132.200 M385.633 113.106 L 386.800 114.413 386.800 132.826 C 386.800 153.134,386.804 153.102,384.352 153.957 C 382.253 154.688,373.740 154.541,373.443 153.767 C 373.089 152.846,373.145 112.189,373.500 111.831 C 373.665 111.665,376.200 111.590,379.133 111.664 L 384.466 111.800 385.633 113.106 M133.253 119.323 C 134.468 122.288,135.926 124.335,138.975 127.358 L 140.950 129.316 138.287 130.213 C 132.355 132.211,127.266 136.705,124.939 142.000 C 123.894 144.379,123.600 145.294,123.600 146.170 C 123.600 146.683,123.326 147.758,122.992 148.559 L 122.383 150.015 113.292 149.907 L 104.200 149.800 104.096 133.095 L 103.991 116.390 118.064 116.495 L 132.137 116.600 133.253 119.323 M295.904 133.100 L 295.800 149.800 232.400 149.911 C 197.530 149.971,168.627 149.931,168.171 149.821 C 167.501 149.659,167.247 149.100,166.849 146.910 C 166.054 142.544,163.921 138.691,160.313 135.107 C 157.088 131.903,156.665 131.200,157.966 131.200 C 159.407 131.200,163.751 128.631,166.227 126.315 C 169.181 123.552,168.867 123.591,171.187 125.700 C 173.959 128.219,174.452 128.571,176.883 129.760 C 185.224 133.841,195.501 132.366,202.015 126.154 C 204.788 123.508,204.581 123.502,207.444 126.317 C 214.887 133.636,226.775 134.004,234.555 127.156 C 236.685 125.281,236.744 125.276,238.225 126.840 C 247.347 136.468,264.277 132.057,267.579 119.193 C 267.832 118.207,268.115 117.175,268.207 116.900 C 268.337 116.513,271.494 116.400,282.192 116.400 L 296.009 116.400 295.904 133.100 M148.840 137.633 C 152.440 138.779,156.285 141.860,157.547 144.609 C 157.847 145.264,158.273 146.146,158.493 146.569 C 158.716 146.998,158.962 151.867,159.049 157.569 C 159.280 172.648,159.429 173.213,163.170 173.187 C 166.692 173.163,167.200 172.095,167.200 164.706 C 167.200 160.770,167.351 158.809,167.680 158.480 C 168.377 157.783,258.823 157.783,259.520 158.480 C 260.334 159.294,259.892 168.336,258.791 173.400 C 258.551 174.500,258.256 175.987,258.134 176.704 C 258.012 177.421,257.751 178.106,257.556 178.227 C 257.360 178.348,257.200 178.876,257.200 179.400 C 257.200 179.924,257.020 180.464,256.800 180.600 C 256.580 180.736,256.400 181.199,256.400 181.629 C 256.400 182.059,256.242 182.723,256.049 183.105 C 255.855 183.487,254.680 185.834,253.438 188.320 C 250.129 194.938,246.626 199.744,241.542 204.642 C 237.505 208.531,237.600 208.288,237.600 214.795 L 237.600 220.400 196.243 220.400 C 158.899 220.400,154.862 220.339,154.643 219.767 C 154.509 219.419,154.400 216.749,154.400 213.834 L 154.400 208.533 153.100 207.120 C 152.385 206.343,149.820 203.995,147.400 201.903 C 138.163 193.918,133.657 186.409,131.799 175.906 C 131.023 171.518,130.960 149.798,131.717 147.400 C 132.933 143.545,135.822 140.017,138.840 138.702 C 139.588 138.376,140.650 137.916,141.200 137.681 C 142.521 137.117,147.128 137.088,148.840 137.633 M250.486 229.300 C 254.978 231.867,254.797 230.642,254.799 258.488 C 254.800 286.589,255.010 285.123,250.637 287.579 C 248.332 288.874,142.868 288.874,140.563 287.579 C 136.169 285.111,136.403 286.743,136.403 258.600 C 136.403 230.659,136.206 232.025,140.621 229.324 C 141.784 228.612,249.242 228.589,250.486 229.300 M243.003 297.700 C 243.123 298.195,243.171 309.580,243.110 323.000 L 243.000 347.400 195.700 347.502 L 148.400 347.603 148.400 322.202 L 148.400 296.800 195.592 296.800 L 242.785 296.800 243.003 297.700 " stroke="none" fill="#040505" fill-rule="evenodd"></path><path id="path4" d="M183.172 66.521 C 178.005 67.987,174.240 72.016,172.817 77.600 C 172.319 79.554,172.462 109.620,172.983 112.600 C 173.628 116.284,177.000 120.873,180.110 122.300 C 180.710 122.575,181.677 123.025,182.261 123.300 C 189.035 126.493,200.964 119.229,200.759 112.036 L 200.718 110.600 200.331 112.000 C 200.117 112.770,199.736 114.107,199.484 114.972 C 196.577 124.921,179.280 126.056,174.861 116.587 C 174.607 116.044,174.175 115.123,173.900 114.540 C 173.523 113.740,173.400 108.960,173.400 95.040 L 173.400 76.600 174.467 74.400 C 180.219 62.538,197.063 64.498,200.240 77.400 C 200.672 79.155,200.736 79.240,200.766 78.091 C 200.952 70.947,190.891 64.331,183.172 66.521 M149.800 73.961 C 146.253 74.591,142.984 77.113,141.200 80.595 L 140.200 82.547 140.200 98.802 L 140.200 115.057 141.200 117.020 C 143.411 121.361,147.147 123.758,151.741 123.784 C 154.544 123.800,158.000 123.000,158.000 122.336 C 158.000 122.151,158.247 122.000,158.549 122.000 C 159.979 122.000,163.011 117.780,163.853 114.618 C 164.507 112.164,164.614 86.454,163.982 83.600 C 162.512 76.959,156.382 72.793,149.800 73.961 M156.889 75.336 C 159.153 76.340,161.547 78.685,162.529 80.859 C 164.696 85.657,164.581 113.082,162.377 117.063 C 157.584 125.721,146.089 125.480,141.600 116.628 L 140.600 114.656 140.600 98.828 L 140.600 83.000 141.583 81.017 C 144.474 75.185,151.046 72.746,156.889 75.336 M217.600 75.177 C 217.270 75.359,216.462 75.753,215.803 76.054 C 210.205 78.610,208.940 83.378,209.343 100.400 C 209.729 116.749,209.916 117.696,213.329 120.618 C 216.447 123.286,222.410 124.618,225.105 123.247 C 225.487 123.052,226.324 122.647,226.965 122.347 C 228.677 121.544,231.188 118.860,232.155 116.800 C 232.970 115.063,233.000 114.446,233.000 99.200 L 233.000 83.400 232.025 81.492 C 229.425 76.403,221.598 72.977,217.600 75.177 M224.818 75.706 C 228.685 77.054,230.918 79.497,232.360 83.960 C 233.090 86.218,232.943 112.500,232.186 114.994 C 229.163 124.963,216.121 126.214,211.273 117.000 L 210.221 115.000 210.210 99.200 L 210.200 83.400 211.400 81.212 C 214.009 76.454,219.959 74.013,224.818 75.706 M200.981 94.600 C 200.981 102.740,201.034 106.013,201.100 101.874 C 201.165 97.734,201.165 91.074,201.099 87.074 C 201.034 83.073,200.981 86.460,200.981 94.600 M247.369 84.567 C 245.556 85.357,243.295 87.481,242.498 89.143 C 241.438 91.356,241.442 116.652,242.503 118.867 C 245.444 125.004,254.475 125.469,258.487 119.691 L 259.800 117.800 259.800 104.200 C 259.800 88.977,259.788 88.901,256.931 86.393 C 254.251 84.040,250.309 83.287,247.369 84.567 M254.067 85.156 C 255.773 85.899,257.621 87.635,258.800 89.600 C 259.436 90.660,259.744 112.516,259.177 116.322 C 257.984 124.323,246.396 125.800,242.879 118.401 C 241.877 116.291,241.865 91.204,242.866 89.400 C 245.189 85.213,250.010 83.387,254.067 85.156 M104.096 133.095 L 104.200 149.800 113.367 149.800 C 119.122 149.800,122.583 149.651,122.667 149.400 C 122.753 149.141,119.589 149.000,113.700 149.000 L 104.600 149.000 104.489 133.800 C 104.427 125.440,104.476 118.195,104.596 117.700 L 104.815 116.800 118.408 116.800 C 127.760 116.800,132.000 116.933,132.000 117.226 C 132.000 118.718,135.013 123.891,137.220 126.189 C 139.529 128.594,139.928 129.600,138.572 129.600 C 135.254 129.600,127.746 135.667,125.266 140.352 C 123.566 143.564,121.770 150.213,123.200 148.000 C 123.413 147.670,123.591 146.913,123.594 146.319 C 123.604 144.618,124.776 141.909,126.869 138.752 C 129.509 134.769,133.402 131.858,138.287 130.213 L 140.950 129.316 138.975 127.358 C 135.926 124.335,134.468 122.288,133.253 119.323 L 132.137 116.600 118.064 116.495 L 103.991 116.390 104.096 133.095 M268.207 116.900 C 268.115 117.175,267.832 118.207,267.579 119.193 C 264.277 132.057,247.347 136.468,238.225 126.840 C 236.744 125.276,236.685 125.281,234.555 127.156 C 226.775 134.004,214.887 133.636,207.444 126.317 C 204.581 123.502,204.788 123.509,202.018 126.150 C 199.552 128.503,197.566 129.657,193.600 131.044 C 192.170 131.544,191.397 131.964,191.881 131.977 C 193.890 132.030,199.526 129.106,202.364 126.537 L 204.668 124.453 207.159 126.823 C 214.321 133.639,224.511 134.543,232.703 129.091 C 233.640 128.467,234.860 127.504,235.413 126.950 L 236.420 125.944 238.454 127.772 C 248.870 137.137,264.677 132.239,268.375 118.500 L 268.832 116.800 282.008 116.800 L 295.185 116.800 295.404 117.700 C 295.524 118.195,295.573 125.440,295.511 133.800 L 295.400 149.000 231.615 149.000 L 167.830 149.000 167.498 147.400 C 166.262 141.453,162.680 135.392,159.177 133.323 C 157.942 132.593,157.655 131.806,158.500 131.465 C 158.775 131.354,158.595 131.249,158.100 131.232 C 156.646 131.181,157.020 131.836,160.313 135.107 C 163.921 138.691,166.054 142.544,166.849 146.910 C 167.247 149.100,167.501 149.659,168.171 149.821 C 168.627 149.931,197.530 149.971,232.400 149.911 L 295.800 149.800 295.904 133.100 L 296.009 116.400 282.192 116.400 C 271.494 116.400,268.337 116.513,268.207 116.900 M166.143 126.363 C 164.792 127.648,162.671 129.196,161.430 129.803 C 160.189 130.410,159.269 131.003,159.387 131.120 C 159.835 131.569,164.198 128.900,166.592 126.712 L 169.096 124.425 170.815 126.060 C 175.685 130.692,183.828 133.580,189.001 132.509 C 190.946 132.106,190.897 132.093,187.200 132.043 C 182.953 131.984,180.171 131.369,176.883 129.760 C 174.452 128.571,173.959 128.219,171.187 125.700 C 168.866 123.590,169.092 123.560,166.143 126.363 M141.200 137.681 C 140.650 137.916,139.588 138.376,138.840 138.702 C 135.822 140.017,132.933 143.545,131.717 147.400 C 131.183 149.094,131.040 172.212,131.549 174.589 C 131.690 175.244,131.828 169.469,131.857 161.756 L 131.910 147.733 133.022 145.463 C 137.020 137.298,147.442 135.123,154.033 141.077 C 158.005 144.666,158.387 146.176,158.394 158.323 C 158.402 172.026,159.010 173.863,163.500 173.762 C 167.078 173.681,168.000 171.767,168.000 164.420 L 168.000 158.800 213.550 158.800 L 259.100 158.800 259.307 159.900 C 259.525 161.063,259.002 169.764,258.591 171.800 C 255.825 185.496,249.967 196.104,240.069 205.343 C 237.396 207.838,237.200 208.456,237.200 214.382 L 237.200 219.604 196.100 219.502 L 155.000 219.400 154.888 213.838 C 154.756 207.249,155.187 208.040,148.600 202.298 C 143.733 198.055,141.973 196.283,139.767 193.400 C 138.387 191.596,135.200 186.126,135.200 185.559 C 135.200 185.356,135.041 184.877,134.847 184.495 C 134.227 183.277,133.703 181.845,133.274 180.200 C 132.158 175.919,132.085 175.721,132.041 176.864 C 131.802 183.096,138.753 194.427,147.400 201.903 C 149.820 203.995,152.385 206.343,153.100 207.120 L 154.400 208.533 154.400 213.834 C 154.400 216.749,154.509 219.419,154.643 219.767 C 154.862 220.339,158.899 220.400,196.243 220.400 L 237.600 220.400 237.600 214.795 C 237.600 208.288,237.505 208.531,241.542 204.642 C 246.626 199.744,250.129 194.938,253.438 188.320 C 254.680 185.834,255.855 183.487,256.049 183.105 C 256.242 182.723,256.400 182.059,256.400 181.629 C 256.400 181.199,256.580 180.736,256.800 180.600 C 257.020 180.464,257.200 179.924,257.200 179.400 C 257.200 178.876,257.360 178.348,257.556 178.227 C 257.751 178.106,258.012 177.421,258.134 176.704 C 258.256 175.987,258.551 174.500,258.791 173.400 C 259.892 168.336,260.334 159.294,259.520 158.480 C 258.823 157.783,168.377 157.783,167.680 158.480 C 167.351 158.809,167.200 160.770,167.200 164.706 C 167.200 172.095,166.692 173.163,163.170 173.187 C 159.429 173.213,159.280 172.648,159.049 157.569 C 158.962 151.867,158.716 146.998,158.493 146.569 C 158.273 146.146,157.847 145.264,157.547 144.609 C 157.051 143.529,154.173 140.392,152.767 139.400 C 149.960 137.419,143.915 136.521,141.200 137.681 M140.621 229.324 C 136.206 232.025,136.403 230.659,136.403 258.600 C 136.403 286.743,136.169 285.111,140.563 287.579 C 142.868 288.874,248.332 288.874,250.637 287.579 C 255.010 285.123,254.800 286.589,254.799 258.488 C 254.797 230.642,254.978 231.867,250.486 229.300 C 249.242 228.589,141.784 228.612,140.621 229.324 M250.320 229.764 C 251.770 230.522,253.453 232.347,253.975 233.726 C 254.820 235.964,254.520 281.900,253.648 283.800 C 252.774 285.703,251.882 286.556,249.898 287.385 C 247.655 288.322,143.537 288.318,141.293 287.381 C 136.674 285.451,136.800 286.257,136.800 258.600 C 136.800 231.348,136.700 232.038,141.000 229.666 C 142.332 228.931,248.909 229.027,250.320 229.764 M148.400 297.300 C 148.400 297.697,158.087 297.800,195.500 297.800 L 242.600 297.800 242.600 322.400 L 242.600 347.000 195.500 347.000 C 169.595 347.000,148.400 347.136,148.400 347.302 C 148.400 347.468,169.685 347.558,195.700 347.502 L 243.000 347.400 243.110 323.000 C 243.171 309.580,243.123 298.195,243.003 297.700 L 242.785 296.800 195.592 296.800 C 158.105 296.800,148.400 296.903,148.400 297.300 " stroke="none" fill="#5e544d" fill-rule="evenodd"></path></g></svg>